{"asset":{"version":"2.0","generator":"Blockbench 5.1.4 glTF exporter"},"scenes":[{"nodes":[0,1,2,3,4,5,6,7,8,9,10,11,12,13,14],"name":"blockbench_export"}],"scene":0,"nodes":[{"translation":[0,0.25,-27.3125],"name":"mesh","mesh":0},{"translation":[0,-0.5625,0],"name":"floor -col","mesh":1},{"translation":[0,8.8125,0],"name":"ceiling-col","mesh":2},{"translation":[0,0,-24.4375],"name":"reception table -col","mesh":3},{"translation":[0,1.4375,-23.6875],"name":"computer -col","mesh":4},{"translation":[-2.625,1.1875,-24.625],"name":"ringing bell -col","mesh":5},{"rotation":[0,0.19509032201612825,0,0.9807852804032304],"translation":[2.375,0.5,-24.1875],"name":"mesh","mesh":6},{"rotation":[-0.7071067811865475,0,0,0.7071067811865476],"translation":[11.9375,1.8125000000000004,-27.6875],"name":"corkboard","mesh":7},{"rotation":[0,0,-0.21643961393810288,0.9762960071199334],"translation":[0,3.125,-27.9375],"name":"mesh","mesh":8},{"translation":[-11.9375,0.1875,-9.0625],"name":"vase -col","mesh":9},{"translation":[11.9375,0.125,-9.0625],"name":"vase-col","mesh":10},{"translation":[0,0.15625,-16],"name":"cylinder","mesh":11},{"translation":[-10,0,-26.625],"name":"cabinet -col","mesh":12},{"translation":[10.0625,0,-26.625],"name":"cabinet 2 -col","mesh":13},{"rotation":[-0.7071067811865475,0,0,0.7071067811865476],"translation":[-14.8125,1.8125000000000004,-21.6875],"name":"wall -col","mesh":14}],"bufferViews":[{"buffer":0,"byteOffset":0,"byteLength":288,"target":34962,"byteStride":12},{"buffer":0,"byteOffset":288,"byteLength":288,"target":34962,"byteStride":12},{"buffer":0,"byteOffset":576,"byteLength":192,"target":34962,"byteStride":8},{"buffer":0,"byteOffset":768,"byteLength":72,"target":34963},{"buffer":0,"byteOffset":840,"byteLength":57024,"target":34962,"byteStride":12},{"buffer":0,"byteOffset":57864,"byteLength":57024,"target":34962,"byteStride":12},{"buffer":0,"byteOffset":114888,"byteLength":38016,"target":34962,"byteStride":8},{"buffer":0,"byteOffset":152904,"byteLength":14256,"target":34963},{"buffer":0,"byteOffset":167160,"byteLength":57024,"target":34962,"byteStride":12},{"buffer":0,"byteOffset":224184,"byteLength":57024,"target":34962,"byteStride":12},{"buffer":0,"byteOffset":281208,"byteLength":38016,"target":34962,"byteStride":8},{"buffer":0,"byteOffset":319224,"byteLength":14256,"target":34963},{"buffer":0,"byteOffset":333480,"byteLength":288,"target":34962,"byteStride":12},{"buffer":0,"byteOffset":333768,"byteLength":288,"target":34962,"byteStride":12},{"buffer":0,"byteOffset":334056,"byteLength":192,"target":34962,"byteStride":8},{"buffer":0,"byteOffset":334248,"byteLength":72,"target":34963},{"buffer":0,"byteOffset":334320,"byteLength":2496,"target":34962,"byteStride":12},{"buffer":0,"byteOffset":336816,"byteLength":2496,"target":34962,"byteStride":12},{"buffer":0,"byteOffset":339312,"byteLength":1664,"target":34962,"byteStride":8},{"buffer":0,"byteOffset":340976,"byteLength":552,"target":34963},{"buffer":0,"byteOffset":341528,"byteLength":4752,"target":34962,"byteStride":12},{"buffer":0,"byteOffset":346280,"byteLength":4752,"target":34962,"byteStride":12},{"buffer":0,"byteOffset":351032,"byteLength":3168,"target":34962,"byteStride":8},{"buffer":0,"byteOffset":354200,"byteLength":996,"target":34963},{"buffer":0,"byteOffset":355196,"byteLength":288,"target":34962,"byteStride":12},{"buffer":0,"byteOffset":355484,"byteLength":288,"target":34962,"byteStride":12},{"buffer":0,"byteOffset":355772,"byteLength":192,"target":34962,"byteStride":8},{"buffer":0,"byteOffset":355964,"byteLength":72,"target":34963},{"buffer":0,"byteOffset":356036,"byteLength":288,"target":34962,"byteStride":12},{"buffer":0,"byteOffset":356324,"byteLength":288,"target":34962,"byteStride":12},{"buffer":0,"byteOffset":356612,"byteLength":192,"target":34962,"byteStride":8},{"buffer":0,"byteOffset":356804,"byteLength":72,"target":34963},{"buffer":0,"byteOffset":356876,"byteLength":288,"target":34962,"byteStride":12},{"buffer":0,"byteOffset":357164,"byteLength":288,"target":34962,"byteStride":12},{"buffer":0,"byteOffset":357452,"byteLength":192,"target":34962,"byteStride":8},{"buffer":0,"byteOffset":357644,"byteLength":72,"target":34963},{"buffer":0,"byteOffset":357716,"byteLength":1056,"target":34962,"byteStride":12},{"buffer":0,"byteOffset":358772,"byteLength":1056,"target":34962,"byteStride":12},{"buffer":0,"byteOffset":359828,"byteLength":704,"target":34962,"byteStride":8},{"buffer":0,"byteOffset":360532,"byteLength":264,"target":34963},{"buffer":0,"byteOffset":360796,"byteLength":1056,"target":34962,"byteStride":12},{"buffer":0,"byteOffset":361852,"byteLength":1056,"target":34962,"byteStride":12},{"buffer":0,"byteOffset":362908,"byteLength":704,"target":34962,"byteStride":8},{"buffer":0,"byteOffset":363612,"byteLength":264,"target":34963},{"buffer":0,"byteOffset":363876,"byteLength":1440,"target":34962,"byteStride":12},{"buffer":0,"byteOffset":365316,"byteLength":1440,"target":34962,"byteStride":12},{"buffer":0,"byteOffset":366756,"byteLength":960,"target":34962,"byteStride":8},{"buffer":0,"byteOffset":367716,"byteLength":288,"target":34963},{"buffer":0,"byteOffset":368004,"byteLength":288,"target":34962,"byteStride":12},{"buffer":0,"byteOffset":368292,"byteLength":288,"target":34962,"byteStride":12},{"buffer":0,"byteOffset":368580,"byteLength":192,"target":34962,"byteStride":8},{"buffer":0,"byteOffset":368772,"byteLength":72,"target":34963},{"buffer":0,"byteOffset":368844,"byteLength":288,"target":34962,"byteStride":12},{"buffer":0,"byteOffset":369132,"byteLength":288,"target":34962,"byteStride":12},{"buffer":0,"byteOffset":369420,"byteLength":192,"target":34962,"byteStride":8},{"buffer":0,"byteOffset":369612,"byteLength":72,"target":34963},{"buffer":0,"byteOffset":369684,"byteLength":5760,"target":34962,"byteStride":12},{"buffer":0,"byteOffset":375444,"byteLength":5760,"target":34962,"byteStride":12},{"buffer":0,"byteOffset":381204,"byteLength":3840,"target":34962,"byteStride":8},{"buffer":0,"byteOffset":385044,"byteLength":1440,"target":34963}],"buffers":[{"byteLength":386484,"uri":"data:application/octet-stream;base64,"}],"accessors":[{"bufferView":0,"componentType":5126,"count":24,"max":[0.4375,2.143749952316284,0.5],"min":[-0.4375,0,-0.5],"type":"VEC3"},{"bufferView":1,"componentType":5126,"count":24,"max":[1,1,1],"min":[-1,-1,-1],"type":"VEC3"},{"bufferView":2,"componentType":5126,"count":24,"max":[1,1.375],"min":[0,0],"type":"VEC2"},{"bufferView":3,"componentType":5123,"count":36,"max":[23],"min":[0],"type":"SCALAR"},{"bufferView":4,"componentType":5126,"count":4752,"max":[49.4375,0.8125,1.5],"min":[-49.5,0.5625,-49.5],"type":"VEC3"},{"bufferView":5,"componentType":5126,"count":4752,"max":[1,1,1],"min":[-1,-1,-1],"type":"VEC3"},{"bufferView":6,"componentType":5126,"count":4752,"max":[1,1.375],"min":[0,0],"type":"VEC2"},{"bufferView":7,"componentType":5123,"count":7128,"max":[4751],"min":[0],"type":"SCALAR"},{"bufferView":8,"componentType":5126,"count":4752,"max":[49.4375,0.8125,1.5],"min":[-49.5,0.5625,-49.5],"type":"VEC3"},{"bufferView":9,"componentType":5126,"count":4752,"max":[1,1,1],"min":[-1,-1,-1],"type":"VEC3"},{"bufferView":10,"componentType":5126,"count":4752,"max":[1,1.375],"min":[0,0],"type":"VEC2"},{"bufferView":11,"componentType":5123,"count":7128,"max":[4751],"min":[0],"type":"SCALAR"},{"bufferView":12,"componentType":5126,"count":24,"max":[6.125,1.1749999523162842,1.868749976158142],"min":[-6.125,0,-1.2062499523162842],"type":"VEC3"},{"bufferView":13,"componentType":5126,"count":24,"max":[1,1,1],"min":[-1,-1,-1],"type":"VEC3"},{"bufferView":14,"componentType":5126,"count":24,"max":[1,1.375],"min":[0,0],"type":"VEC2"},{"bufferView":15,"componentType":5123,"count":36,"max":[23],"min":[0],"type":"SCALAR"},{"bufferView":16,"componentType":5126,"count":208,"max":[1.0812499523162842,1.375,0.25],"min":[-1.0812499523162842,-0.28125,-1.3125],"type":"VEC3"},{"bufferView":17,"componentType":5126,"count":208,"max":[1,1,1],"min":[-1,-1,-1],"type":"VEC3"},{"bufferView":18,"componentType":5126,"count":208,"max":[2.1624999046325684,1.375],"min":[0,0],"type":"VEC2"},{"bufferView":19,"componentType":5123,"count":276,"max":[207],"min":[0],"type":"SCALAR"},{"bufferView":20,"componentType":5126,"count":396,"max":[0.20000000298023224,0.32499998807907104,0.20624999701976776],"min":[-0.20000000298023224,0,-0.20624999701976776],"type":"VEC3"},{"bufferView":21,"componentType":5126,"count":396,"max":[1,1,1],"min":[-1,-1,-1],"type":"VEC3"},{"bufferView":22,"componentType":5126,"count":396,"max":[0.32352787256240845,1.375],"min":[0,0],"type":"VEC2"},{"bufferView":23,"componentType":5123,"count":498,"max":[395],"min":[0],"type":"SCALAR"},{"bufferView":24,"componentType":5126,"count":24,"max":[0.375,0.7562500238418579,0.5625],"min":[-0.375,0.6875,-0.5625],"type":"VEC3"},{"bufferView":25,"componentType":5126,"count":24,"max":[0.9397934079170227,1,0.9759969115257263],"min":[-0.9397934079170227,-1,-0.9759969115257263],"type":"VEC3"},{"bufferView":26,"componentType":5126,"count":24,"max":[0.625,1.375],"min":[0,0],"type":"VEC2"},{"bufferView":27,"componentType":5123,"count":36,"max":[23],"min":[0],"type":"SCALAR"},{"bufferView":28,"componentType":5126,"count":24,"max":[1.5625,0.8125,7.706250190734863],"min":[-25.399999618530273,0.5625,-1.5625],"type":"VEC3"},{"bufferView":29,"componentType":5126,"count":24,"max":[1,1,1],"min":[-1,-1,-1],"type":"VEC3"},{"bufferView":30,"componentType":5126,"count":24,"max":[0.625,1.375],"min":[0,0],"type":"VEC2"},{"bufferView":31,"componentType":5123,"count":36,"max":[23],"min":[0],"type":"SCALAR"},{"bufferView":32,"componentType":5126,"count":24,"max":[2.625,2.125,-0.19374999403953552],"min":[-2.625,-0.75,-0.3125],"type":"VEC3"},{"bufferView":33,"componentType":5126,"count":24,"max":[1,1,1],"min":[-1,-1,-1],"type":"VEC3"},{"bufferView":34,"componentType":5126,"count":24,"max":[0.625,1.375],"min":[0,0],"type":"VEC2"},{"bufferView":35,"componentType":5123,"count":36,"max":[23],"min":[0],"type":"SCALAR"},{"bufferView":36,"componentType":5126,"count":88,"max":[0.7941941618919373,1.46875,0.7941941618919373],"min":[-0.7941941618919373,0.13124999403953552,-0.7941941618919373],"type":"VEC3"},{"bufferView":37,"componentType":5126,"count":88,"max":[1,1,1],"min":[-1,-1,-1],"type":"VEC3"},{"bufferView":38,"componentType":5126,"count":88,"max":[1.5883874893188477,1.5883874893188477],"min":[0,0],"type":"VEC2"},{"bufferView":39,"componentType":5123,"count":132,"max":[87],"min":[0],"type":"SCALAR"},{"bufferView":40,"componentType":5126,"count":88,"max":[0.7941941618919373,1.46875,0.7941941618919373],"min":[-0.7941941618919373,0.13124999403953552,-0.7941941618919373],"type":"VEC3"},{"bufferView":41,"componentType":5126,"count":88,"max":[1,1,1],"min":[-1,-1,-1],"type":"VEC3"},{"bufferView":42,"componentType":5126,"count":88,"max":[1.5883874893188477,1.5883874893188477],"min":[0,0],"type":"VEC2"},{"bufferView":43,"componentType":5123,"count":132,"max":[87],"min":[0],"type":"SCALAR"},{"bufferView":44,"componentType":5126,"count":120,"max":[4,0.12812499701976776,3.875],"min":[-4,0,-3.875],"type":"VEC3"},{"bufferView":45,"componentType":5126,"count":120,"max":[1,1,1],"min":[-1,-1,-1],"type":"VEC3"},{"bufferView":46,"componentType":5126,"count":120,"max":[0.32352787256240845,1.375],"min":[0,0],"type":"VEC2"},{"bufferView":47,"componentType":5123,"count":144,"max":[119],"min":[0],"type":"SCALAR"},{"bufferView":48,"componentType":5126,"count":24,"max":[1.256250023841858,2.03125,0.9375],"min":[-1.5625,0,-0.9375],"type":"VEC3"},{"bufferView":49,"componentType":5126,"count":24,"max":[1,1,1],"min":[-1,-1,-1],"type":"VEC3"},{"bufferView":50,"componentType":5126,"count":24,"max":[0.625,1.375],"min":[0,0],"type":"VEC2"},{"bufferView":51,"componentType":5123,"count":36,"max":[23],"min":[0],"type":"SCALAR"},{"bufferView":52,"componentType":5126,"count":24,"max":[1.256250023841858,2.03125,0.9375],"min":[-1.5625,0,-0.9375],"type":"VEC3"},{"bufferView":53,"componentType":5126,"count":24,"max":[1,1,1],"min":[-1,-1,-1],"type":"VEC3"},{"bufferView":54,"componentType":5126,"count":24,"max":[0.625,1.375],"min":[0,0],"type":"VEC2"},{"bufferView":55,"componentType":5123,"count":36,"max":[23],"min":[0],"type":"SCALAR"},{"bufferView":56,"componentType":5126,"count":480,"max":[64.2874984741211,27.818750381469727,7.706250190734863],"min":[-34.6875,-23.1875,-1.5625],"type":"VEC3"},{"bufferView":57,"componentType":5126,"count":480,"max":[1,1,1],"min":[-1,-1,-1],"type":"VEC3"},{"bufferView":58,"componentType":5126,"count":480,"max":[0.625,1.375],"min":[0,0],"type":"VEC2"},{"bufferView":59,"componentType":5123,"count":720,"max":[479],"min":[0],"type":"SCALAR"}],"materials":[{"pbrMetallicRoughness":{"metallicFactor":0,"roughnessFactor":1},"alphaMode":"MASK","alphaCutoff":0.05,"doubleSided":true},{"pbrMetallicRoughness":{"metallicFactor":0,"roughnessFactor":1},"alphaMode":"MASK","alphaCutoff":0.05,"doubleSided":true},{"pbrMetallicRoughness":{"metallicFactor":0,"roughnessFactor":1},"alphaMode":"MASK","alphaCutoff":0.05,"doubleSided":true},{"pbrMetallicRoughness":{"metallicFactor":0,"roughnessFactor":1},"alphaMode":"MASK","alphaCutoff":0.05,"doubleSided":true},{"pbrMetallicRoughness":{"metallicFactor":0,"roughnessFactor":1},"alphaMode":"MASK","alphaCutoff":0.05,"doubleSided":true},{"pbrMetallicRoughness":{"metallicFactor":0,"roughnessFactor":1},"alphaMode":"MASK","alphaCutoff":0.05,"doubleSided":true},{"pbrMetallicRoughness":{"metallicFactor":0,"roughnessFactor":1},"alphaMode":"MASK","alphaCutoff":0.05,"doubleSided":true},{"pbrMetallicRoughness":{"metallicFactor":0,"roughnessFactor":1},"alphaMode":"MASK","alphaCutoff":0.05,"doubleSided":true}],"meshes":[{"primitives":[{"mode":4,"attributes":{"POSITION":0,"NORMAL":1,"TEXCOORD_0":2},"indices":3,"material":0}]},{"primitives":[{"mode":4,"attributes":{"POSITION":4,"NORMAL":5,"TEXCOORD_0":6},"indices":7,"material":1}]},{"primitives":[{"mode":4,"attributes":{"POSITION":8,"NORMAL":9,"TEXCOORD_0":10},"indices":11,"material":1}]},{"primitives":[{"mode":4,"attributes":{"POSITION":12,"NORMAL":13,"TEXCOORD_0":14},"indices":15,"material":2}]},{"primitives":[{"mode":4,"attributes":{"POSITION":16,"NORMAL":17,"TEXCOORD_0":18},"indices":19,"material":3}]},{"primitives":[{"mode":4,"attributes":{"POSITION":20,"NORMAL":21,"TEXCOORD_0":22},"indices":23,"material":4}]},{"primitives":[{"mode":4,"attributes":{"POSITION":24,"NORMAL":25,"TEXCOORD_0":26},"indices":27,"material":4}]},{"primitives":[{"mode":4,"attributes":{"POSITION":28,"NORMAL":29,"TEXCOORD_0":30},"indices":31,"material":5}]},{"primitives":[{"mode":4,"attributes":{"POSITION":32,"NORMAL":33,"TEXCOORD_0":34},"indices":35,"material":6}]},{"primitives":[{"mode":4,"attributes":{"POSITION":36,"NORMAL":37,"TEXCOORD_0":38},"indices":39,"material":4}]},{"primitives":[{"mode":4,"attributes":{"POSITION":40,"NORMAL":41,"TEXCOORD_0":42},"indices":43,"material":4}]},{"primitives":[{"mode":4,"attributes":{"POSITION":44,"NORMAL":45,"TEXCOORD_0":46},"indices":47,"material":0}]},{"primitives":[{"mode":4,"attributes":{"POSITION":48,"NORMAL":49,"TEXCOORD_0":50},"indices":51,"material":7}]},{"primitives":[{"mode":4,"attributes":{"POSITION":52,"NORMAL":53,"TEXCOORD_0":54},"indices":55,"material":7}]},{"primitives":[{"mode":4,"attributes":{"POSITION":56,"NORMAL":57,"TEXCOORD_0":58},"indices":59,"material":5}]}]}